<mxfile host="app.diagrams.net" modified="2021-09-27T07:14:55.158Z" agent="5.0 (Windows NT 10.0; Win64; x64) AppleWebKit/537.36 (KHTML, like Gecko) Chrome/93.0.4577.82 Safari/537.36" etag="qA2ORtKFEFE8h4GqiEQ7" version="15.2.9" type="github">
  <diagram id="qiCAR2B2V9ckpXEqJERp" name="Page-1">
    <mxGraphModel dx="1185" dy="662" grid="1" gridSize="10" guides="1" tooltips="1" connect="1" arrows="1" fold="1" page="1" pageScale="1" pageWidth="827" pageHeight="1169" math="0" shadow="0">
      <root>
        <mxCell id="0" />
        <mxCell id="1" parent="0" />
        <mxCell id="4zFBhypWq3I9iRk7QWND-22" value="Frame" style="shape=umlFrame;whiteSpace=wrap;html=1;fontSize=16;" parent="1" vertex="1">
          <mxGeometry x="90" y="250" width="648" height="863" as="geometry" />
        </mxCell>
        <mxCell id="4zFBhypWq3I9iRk7QWND-18" value="" style="endArrow=none;endFill=0;endSize=6;html=1;startArrow=classic;startFill=1;" parent="1" edge="1">
          <mxGeometry width="160" relative="1" as="geometry">
            <mxPoint x="410" y="229" as="sourcePoint" />
            <mxPoint x="680" y="229" as="targetPoint" />
            <Array as="points">
              <mxPoint x="517" y="229" />
            </Array>
          </mxGeometry>
        </mxCell>
        <mxCell id="4zFBhypWq3I9iRk7QWND-2" value="&lt;font style=&quot;font-size: 24px&quot;&gt;程式&lt;/font&gt;" style="html=1;" parent="1" vertex="1">
          <mxGeometry x="355" y="29" width="110" height="50" as="geometry" />
        </mxCell>
        <mxCell id="4zFBhypWq3I9iRk7QWND-3" value="&lt;font style=&quot;font-size: 24px&quot;&gt;伺服器&lt;/font&gt;" style="html=1;" parent="1" vertex="1">
          <mxGeometry x="628" y="29" width="110" height="50" as="geometry" />
        </mxCell>
        <mxCell id="4zFBhypWq3I9iRk7QWND-5" value="" style="endArrow=open;endFill=1;endSize=12;html=1;exitX=0.5;exitY=1;exitDx=0;exitDy=0;" parent="1" edge="1" source="fHjMfiuLc_6snp23370D-22">
          <mxGeometry width="160" relative="1" as="geometry">
            <mxPoint x="238" y="113" as="sourcePoint" />
            <mxPoint x="238" y="1139" as="targetPoint" />
          </mxGeometry>
        </mxCell>
        <mxCell id="4zFBhypWq3I9iRk7QWND-6" value="" style="endArrow=open;endFill=1;endSize=12;html=1;exitX=0.496;exitY=1.033;exitDx=0;exitDy=0;exitPerimeter=0;" parent="1" edge="1" source="4zFBhypWq3I9iRk7QWND-2">
          <mxGeometry width="160" relative="1" as="geometry">
            <mxPoint x="409.93" y="89" as="sourcePoint" />
            <mxPoint x="410" y="1139" as="targetPoint" />
          </mxGeometry>
        </mxCell>
        <mxCell id="4zFBhypWq3I9iRk7QWND-7" value="" style="endArrow=open;endFill=1;endSize=12;html=1;exitX=0.5;exitY=1;exitDx=0;exitDy=0;" parent="1" edge="1" source="4zFBhypWq3I9iRk7QWND-3">
          <mxGeometry width="160" relative="1" as="geometry">
            <mxPoint x="682.5" y="93" as="sourcePoint" />
            <mxPoint x="690" y="1139" as="targetPoint" />
          </mxGeometry>
        </mxCell>
        <mxCell id="4zFBhypWq3I9iRk7QWND-9" value="" style="endArrow=classic;endFill=1;endSize=6;html=1;" parent="1" edge="1">
          <mxGeometry width="160" relative="1" as="geometry">
            <mxPoint x="238" y="152" as="sourcePoint" />
            <mxPoint x="408" y="152" as="targetPoint" />
          </mxGeometry>
        </mxCell>
        <mxCell id="4zFBhypWq3I9iRk7QWND-15" value="開啟活動頁面" style="text;strokeColor=none;fillColor=none;html=1;fontSize=16;fontStyle=0;verticalAlign=middle;align=center;" parent="1" vertex="1">
          <mxGeometry x="268" y="118" width="100" height="40" as="geometry" />
        </mxCell>
        <mxCell id="4zFBhypWq3I9iRk7QWND-16" value="" style="endArrow=classic;endFill=1;endSize=6;html=1;jumpSize=5;" parent="1" edge="1">
          <mxGeometry width="160" relative="1" as="geometry">
            <mxPoint x="408" y="163" as="sourcePoint" />
            <mxPoint x="680" y="163" as="targetPoint" />
          </mxGeometry>
        </mxCell>
        <mxCell id="4zFBhypWq3I9iRk7QWND-17" value="請求參加人員列表" style="text;strokeColor=none;fillColor=none;html=1;fontSize=16;fontStyle=0;verticalAlign=middle;align=center;" parent="1" vertex="1">
          <mxGeometry x="498" y="136.75" width="100" height="24" as="geometry" />
        </mxCell>
        <mxCell id="4zFBhypWq3I9iRk7QWND-19" value="回傳參加人員列表" style="text;strokeColor=none;fillColor=none;html=1;fontSize=16;fontStyle=0;verticalAlign=middle;align=center;" parent="1" vertex="1">
          <mxGeometry x="498" y="203" width="100" height="24" as="geometry" />
        </mxCell>
        <mxCell id="4zFBhypWq3I9iRk7QWND-20" value="" style="endArrow=none;endFill=0;endSize=6;html=1;startArrow=classic;startFill=1;" parent="1" edge="1">
          <mxGeometry width="160" relative="1" as="geometry">
            <mxPoint x="238" y="243" as="sourcePoint" />
            <mxPoint x="408" y="243" as="targetPoint" />
            <Array as="points">
              <mxPoint x="348" y="243" />
            </Array>
          </mxGeometry>
        </mxCell>
        <mxCell id="4zFBhypWq3I9iRk7QWND-21" value="顯示參加人員列表" style="text;strokeColor=none;fillColor=none;html=1;fontSize=16;fontStyle=0;verticalAlign=middle;align=center;" parent="1" vertex="1">
          <mxGeometry x="268" y="203" width="100" height="40" as="geometry" />
        </mxCell>
        <mxCell id="4zFBhypWq3I9iRk7QWND-23" value="" style="line;strokeWidth=1;fillColor=none;align=left;verticalAlign=middle;spacingTop=-1;spacingLeft=3;spacingRight=3;rotatable=0;labelPosition=right;points=[];portConstraint=eastwest;fontSize=16;" parent="1" vertex="1">
          <mxGeometry x="90" y="433" width="648" height="8" as="geometry" />
        </mxCell>
        <mxCell id="4zFBhypWq3I9iRk7QWND-25" value="" style="endArrow=classic;endFill=1;endSize=6;html=1;" parent="1" edge="1">
          <mxGeometry width="160" relative="1" as="geometry">
            <mxPoint x="239" y="306.32" as="sourcePoint" />
            <mxPoint x="409" y="306.32" as="targetPoint" />
          </mxGeometry>
        </mxCell>
        <mxCell id="4zFBhypWq3I9iRk7QWND-26" value="點擊詳細" style="text;strokeColor=none;fillColor=none;html=1;fontSize=16;fontStyle=0;verticalAlign=middle;align=center;" parent="1" vertex="1">
          <mxGeometry x="269" y="282.32" width="100" height="24" as="geometry" />
        </mxCell>
        <mxCell id="4zFBhypWq3I9iRk7QWND-27" value="" style="endArrow=none;endFill=0;endSize=12;html=1;startArrow=classic;startFill=1;" parent="1" edge="1">
          <mxGeometry width="160" relative="1" as="geometry">
            <mxPoint x="410" y="417" as="sourcePoint" />
            <mxPoint x="680" y="417" as="targetPoint" />
            <Array as="points">
              <mxPoint x="517" y="416.93" />
            </Array>
          </mxGeometry>
        </mxCell>
        <mxCell id="4zFBhypWq3I9iRk7QWND-28" value="" style="endArrow=classic;endFill=1;endSize=6;html=1;" parent="1" edge="1">
          <mxGeometry width="160" relative="1" as="geometry">
            <mxPoint x="410" y="315" as="sourcePoint" />
            <mxPoint x="680" y="315" as="targetPoint" />
          </mxGeometry>
        </mxCell>
        <mxCell id="4zFBhypWq3I9iRk7QWND-29" value="請求該使用者資料" style="text;strokeColor=none;fillColor=none;html=1;fontSize=16;fontStyle=0;verticalAlign=middle;align=center;" parent="1" vertex="1">
          <mxGeometry x="489.5" y="288.48" width="110" height="24.52" as="geometry" />
        </mxCell>
        <mxCell id="4zFBhypWq3I9iRk7QWND-30" value="回傳該使用者資料" style="text;strokeColor=none;fillColor=none;html=1;fontSize=16;fontStyle=0;verticalAlign=middle;align=center;" parent="1" vertex="1">
          <mxGeometry x="494.5" y="397.28000000000003" width="100" height="20" as="geometry" />
        </mxCell>
        <mxCell id="4zFBhypWq3I9iRk7QWND-31" value="" style="endArrow=none;endFill=0;endSize=12;html=1;startArrow=classic;startFill=1;" parent="1" edge="1">
          <mxGeometry width="160" relative="1" as="geometry">
            <mxPoint x="240" y="425" as="sourcePoint" />
            <mxPoint x="410" y="425" as="targetPoint" />
            <Array as="points">
              <mxPoint x="344" y="425.25" />
            </Array>
          </mxGeometry>
        </mxCell>
        <mxCell id="4zFBhypWq3I9iRk7QWND-32" value="移動到該使用者頁面並&lt;br&gt;顯示資料" style="text;strokeColor=none;fillColor=none;html=1;fontSize=16;fontStyle=0;verticalAlign=middle;align=center;" parent="1" vertex="1">
          <mxGeometry x="274" y="385.25" width="100" height="40" as="geometry" />
        </mxCell>
        <mxCell id="4zFBhypWq3I9iRk7QWND-33" value="" style="endArrow=classic;endFill=1;endSize=6;html=1;" parent="1" edge="1">
          <mxGeometry width="160" relative="1" as="geometry">
            <mxPoint x="238" y="481" as="sourcePoint" />
            <mxPoint x="408" y="481" as="targetPoint" />
          </mxGeometry>
        </mxCell>
        <mxCell id="4zFBhypWq3I9iRk7QWND-35" value="Alternative" style="shape=umlFrame;whiteSpace=wrap;html=1;fontSize=16;width=90;height=36;" parent="1" vertex="1">
          <mxGeometry x="100" y="487" width="620" height="492" as="geometry" />
        </mxCell>
        <mxCell id="4zFBhypWq3I9iRk7QWND-34" value="點擊好友邀請圖示" style="text;strokeColor=none;fillColor=none;html=1;fontSize=16;fontStyle=0;verticalAlign=middle;align=center;" parent="1" vertex="1">
          <mxGeometry x="268" y="443" width="100" height="40" as="geometry" />
        </mxCell>
        <mxCell id="4zFBhypWq3I9iRk7QWND-36" value="" style="line;strokeWidth=1;fillColor=none;align=left;verticalAlign=middle;spacingTop=-1;spacingLeft=3;spacingRight=3;rotatable=0;labelPosition=right;points=[];portConstraint=eastwest;fontSize=16;" parent="1" vertex="1">
          <mxGeometry x="100" y="633" width="620" height="8" as="geometry" />
        </mxCell>
        <mxCell id="4zFBhypWq3I9iRk7QWND-37" value="如果雙方&lt;br&gt;不是好友" style="text;strokeColor=none;fillColor=none;html=1;fontSize=16;fontStyle=0;verticalAlign=middle;align=center;" parent="1" vertex="1">
          <mxGeometry x="116" y="594" width="100" height="40" as="geometry" />
        </mxCell>
        <mxCell id="4zFBhypWq3I9iRk7QWND-38" value="如果雙方互相寄送&lt;br&gt;好友邀請" style="text;strokeColor=none;fillColor=none;html=1;fontSize=16;fontStyle=0;verticalAlign=middle;align=center;" parent="1" vertex="1">
          <mxGeometry x="116" y="739" width="100" height="40" as="geometry" />
        </mxCell>
        <mxCell id="4zFBhypWq3I9iRk7QWND-40" value="向對方發送好友邀請" style="text;strokeColor=none;fillColor=none;html=1;fontSize=16;fontStyle=0;verticalAlign=middle;align=center;" parent="1" vertex="1">
          <mxGeometry x="496" y="555" width="100" height="24" as="geometry" />
        </mxCell>
        <mxCell id="4zFBhypWq3I9iRk7QWND-41" value="" style="endArrow=classic;endFill=1;endSize=6;html=1;" parent="1" edge="1">
          <mxGeometry width="160" relative="1" as="geometry">
            <mxPoint x="410" y="578.43" as="sourcePoint" />
            <mxPoint x="680" y="578" as="targetPoint" />
          </mxGeometry>
        </mxCell>
        <mxCell id="4zFBhypWq3I9iRk7QWND-43" value="加入未確認好友列中" style="text;strokeColor=none;fillColor=none;html=1;fontSize=16;fontStyle=0;verticalAlign=middle;align=center;" parent="1" vertex="1">
          <mxGeometry x="499.5" y="584" width="100" height="30" as="geometry" />
        </mxCell>
        <mxCell id="4zFBhypWq3I9iRk7QWND-44" value="" style="endArrow=none;endFill=0;endSize=12;html=1;startArrow=classic;startFill=1;" parent="1" edge="1">
          <mxGeometry width="160" relative="1" as="geometry">
            <mxPoint x="410" y="614" as="sourcePoint" />
            <mxPoint x="680" y="614" as="targetPoint" />
            <Array as="points">
              <mxPoint x="520" y="613.71" />
            </Array>
          </mxGeometry>
        </mxCell>
        <mxCell id="4zFBhypWq3I9iRk7QWND-45" value="" style="endArrow=none;endFill=0;endSize=12;html=1;startArrow=classic;startFill=1;" parent="1" edge="1">
          <mxGeometry width="160" relative="1" as="geometry">
            <mxPoint x="239" y="619" as="sourcePoint" />
            <mxPoint x="409" y="619" as="targetPoint" />
            <Array as="points">
              <mxPoint x="349" y="619" />
            </Array>
          </mxGeometry>
        </mxCell>
        <mxCell id="4zFBhypWq3I9iRk7QWND-46" value="顯示已傳送好友邀請" style="text;strokeColor=none;fillColor=none;html=1;fontSize=16;fontStyle=0;verticalAlign=middle;align=center;" parent="1" vertex="1">
          <mxGeometry x="274" y="579" width="100" height="40" as="geometry" />
        </mxCell>
        <mxCell id="4zFBhypWq3I9iRk7QWND-47" value="" style="endArrow=none;endFill=0;endSize=6;html=1;startArrow=classic;startFill=1;" parent="1" edge="1">
          <mxGeometry width="160" relative="1" as="geometry">
            <mxPoint x="239" y="789" as="sourcePoint" />
            <mxPoint x="409" y="789" as="targetPoint" />
            <Array as="points">
              <mxPoint x="349" y="789" />
            </Array>
          </mxGeometry>
        </mxCell>
        <mxCell id="4zFBhypWq3I9iRk7QWND-48" value="顯示雙方已經是好友" style="text;strokeColor=none;fillColor=none;html=1;fontSize=16;fontStyle=0;verticalAlign=middle;align=center;" parent="1" vertex="1">
          <mxGeometry x="279" y="749" width="100" height="40" as="geometry" />
        </mxCell>
        <mxCell id="fHjMfiuLc_6snp23370D-1" value="頁面跳轉 : 活動頁 (int)" style="rounded=0;whiteSpace=wrap;html=1;" vertex="1" parent="1">
          <mxGeometry x="252" y="96.75" width="132" height="26.25" as="geometry" />
        </mxCell>
        <mxCell id="fHjMfiuLc_6snp23370D-2" value="資料庫查詢&lt;br&gt;活動ID (str)" style="rounded=0;whiteSpace=wrap;html=1;" vertex="1" parent="1">
          <mxGeometry x="512.5" y="96.75" width="71" height="40" as="geometry" />
        </mxCell>
        <mxCell id="fHjMfiuLc_6snp23370D-3" value="資料庫讀取&lt;br&gt;參加人員ID陣列 (str)" style="rounded=0;whiteSpace=wrap;html=1;" vertex="1" parent="1">
          <mxGeometry x="482.25" y="173" width="131.5" height="30" as="geometry" />
        </mxCell>
        <mxCell id="fHjMfiuLc_6snp23370D-4" value="頁面跳轉 : 詳細頁 (int)" style="rounded=0;whiteSpace=wrap;html=1;" vertex="1" parent="1">
          <mxGeometry x="258" y="359" width="132" height="26.25" as="geometry" />
        </mxCell>
        <mxCell id="fHjMfiuLc_6snp23370D-5" value="資料庫查詢&lt;br&gt;使用者ID (str)" style="rounded=0;whiteSpace=wrap;html=1;" vertex="1" parent="1">
          <mxGeometry x="505.5" y="255.16000000000003" width="81" height="33.32" as="geometry" />
        </mxCell>
        <mxCell id="fHjMfiuLc_6snp23370D-6" value="資料庫讀取&lt;br&gt;使用者ID (str)、學號 (str)、&lt;br&gt;姓名 (str)、tags (str)、&lt;br&gt;自我介紹 (str)、生理性別 (int)、感情狀況 (int)" style="rounded=0;whiteSpace=wrap;html=1;" vertex="1" parent="1">
          <mxGeometry x="459.5" y="319" width="180" height="74.1" as="geometry" />
        </mxCell>
        <mxCell id="fHjMfiuLc_6snp23370D-11" value="資料庫寫入&lt;br&gt;發送者ID (str)、待確認好友邀請_ID (str)、&lt;br&gt;接收者ID (str)、待接受好友邀請_ID&amp;nbsp;(str)、" style="rounded=0;whiteSpace=wrap;html=1;" vertex="1" parent="1">
          <mxGeometry x="434.5" y="502.5" width="230" height="52.5" as="geometry" />
        </mxCell>
        <mxCell id="fHjMfiuLc_6snp23370D-22" value="&lt;font style=&quot;font-size: 24px&quot;&gt;使用者&lt;/font&gt;" style="rounded=0;whiteSpace=wrap;html=1;" vertex="1" parent="1">
          <mxGeometry x="190" y="29" width="96.88" height="50" as="geometry" />
        </mxCell>
        <mxCell id="fHjMfiuLc_6snp23370D-25" value="資料庫查詢&lt;br&gt;使用者ID (str)、&lt;br&gt;待確認好友邀請_ID (str)&lt;br&gt;待接受好友邀請_ID&amp;nbsp;(str)" style="rounded=0;whiteSpace=wrap;html=1;" vertex="1" parent="1">
          <mxGeometry x="100" y="529" width="132" height="60" as="geometry" />
        </mxCell>
        <mxCell id="fHjMfiuLc_6snp23370D-26" value="資料庫查詢&lt;br&gt;使用者ID (str)、&lt;br&gt;待確認好友邀請_ID (str)&lt;br&gt;待接受好友邀請_ID&amp;nbsp;(str)" style="rounded=0;whiteSpace=wrap;html=1;" vertex="1" parent="1">
          <mxGeometry x="100" y="669" width="132" height="62.5" as="geometry" />
        </mxCell>
        <mxCell id="fHjMfiuLc_6snp23370D-28" value="" style="line;strokeWidth=1;fillColor=none;align=left;verticalAlign=middle;spacingTop=-1;spacingLeft=3;spacingRight=3;rotatable=0;labelPosition=right;points=[];portConstraint=eastwest;fontSize=16;" vertex="1" parent="1">
          <mxGeometry x="100" y="839" width="620" height="8" as="geometry" />
        </mxCell>
        <mxCell id="fHjMfiuLc_6snp23370D-30" value="如果雙&lt;br&gt;方是好友" style="text;strokeColor=none;fillColor=none;html=1;fontSize=16;fontStyle=0;verticalAlign=middle;align=center;" vertex="1" parent="1">
          <mxGeometry x="116" y="931.5" width="100" height="40" as="geometry" />
        </mxCell>
        <mxCell id="fHjMfiuLc_6snp23370D-31" value="" style="endArrow=none;endFill=0;endSize=6;html=1;startArrow=classic;startFill=1;" edge="1" parent="1">
          <mxGeometry width="160" relative="1" as="geometry">
            <mxPoint x="239" y="919" as="sourcePoint" />
            <mxPoint x="409" y="919" as="targetPoint" />
            <Array as="points">
              <mxPoint x="349" y="919" />
            </Array>
          </mxGeometry>
        </mxCell>
        <mxCell id="fHjMfiuLc_6snp23370D-32" value="顯示雙方已經是好友" style="text;strokeColor=none;fillColor=none;html=1;fontSize=16;fontStyle=0;verticalAlign=middle;align=center;" vertex="1" parent="1">
          <mxGeometry x="279" y="879" width="100" height="40" as="geometry" />
        </mxCell>
        <mxCell id="fHjMfiuLc_6snp23370D-33" value="資料庫查詢&lt;br&gt;使用者ID (str)、&lt;br&gt;好友列表_ID (str)" style="rounded=0;whiteSpace=wrap;html=1;" vertex="1" parent="1">
          <mxGeometry x="100" y="869" width="132" height="52.5" as="geometry" />
        </mxCell>
        <mxCell id="fHjMfiuLc_6snp23370D-35" value="" style="endArrow=classic;endFill=1;endSize=6;html=1;" edge="1" parent="1">
          <mxGeometry width="160" relative="1" as="geometry">
            <mxPoint x="414.5" y="769.14" as="sourcePoint" />
            <mxPoint x="684.5" y="768.71" as="targetPoint" />
          </mxGeometry>
        </mxCell>
        <mxCell id="fHjMfiuLc_6snp23370D-36" value="資料庫寫入&lt;br&gt;發送者ID (str)、好友列表_ID (str)&lt;br&gt;接收者ID (str)、接收者好友列表_ID (str)&lt;br&gt;資料庫刪除雙方&lt;br&gt;待確認好友邀請_ID (str)&lt;br&gt;待接受好友邀請_ID&amp;nbsp;(str)" style="rounded=0;whiteSpace=wrap;html=1;" vertex="1" parent="1">
          <mxGeometry x="431" y="649" width="237" height="90" as="geometry" />
        </mxCell>
        <mxCell id="fHjMfiuLc_6snp23370D-37" value="邀請相互沖消" style="text;strokeColor=none;fillColor=none;html=1;fontSize=16;fontStyle=0;verticalAlign=middle;align=center;" vertex="1" parent="1">
          <mxGeometry x="498" y="739" width="100" height="40" as="geometry" />
        </mxCell>
      </root>
    </mxGraphModel>
  </diagram>
</mxfile>
